<svg aria-hidden="true" style="position: absolute; width: 0; height: 0; overflow: hidden;" version="1.1" xmlns="http://www.w3.org/2000/svg" xmlns:xlink="http://www.w3.org/1999/xlink">
<defs>
<symbol id="icon-instagram-1" viewBox="0 0 33 32">
<path d="M28.451 0h-23.568c-2.692 0-4.883 2.069-4.883 4.612v22.258c0 2.543 2.191 4.611 4.883 4.611h23.568c2.692 0 4.883-2.069 4.883-4.611v-22.258c0-2.543-2.191-4.612-4.883-4.612zM16.732 23.98c-4.846 0-8.789-3.724-8.789-8.301s3.943-8.301 8.789-8.301c4.847 0 8.789 3.724 8.789 8.301s-3.943 8.301-8.789 8.301zM26.497 9.223c-1.615 0-2.93-1.241-2.93-2.767s1.314-2.767 2.93-2.767c1.615 0 2.93 1.241 2.93 2.767s-1.314 2.767-2.93 2.767z"></path>
<path d="M26.497 5.534c-0.539 0-0.977 0.413-0.977 0.922s0.438 0.922 0.977 0.922c0.539 0 0.977-0.413 0.977-0.922s-0.438-0.922-0.977-0.922z"></path>
<path d="M16.732 9.223c-3.769 0-6.836 2.897-6.836 6.456s3.067 6.456 6.836 6.456c3.769 0 6.836-2.897 6.836-6.456s-3.067-6.456-6.836-6.456z"></path>
</symbol>
<symbol id="icon-facebook-1" viewBox="0 0 33 32">
<path d="M28.843 0h-24.35c-2.481 0-4.492 1.899-4.492 4.242v22.997c0 2.343 2.011 4.242 4.492 4.242h12.009l0.021-11.25h-3.095c-0.402 0-0.729-0.307-0.73-0.687l-0.015-3.626c-0.002-0.382 0.326-0.692 0.73-0.692h3.089v-3.504c0-4.066 2.629-6.28 6.47-6.28h3.152c0.403 0 0.73 0.309 0.73 0.69v3.058c0 0.381-0.327 0.689-0.73 0.69l-1.934 0.001c-2.089 0-2.493 0.937-2.493 2.313v3.033h4.59c0.437 0 0.777 0.361 0.725 0.771l-0.455 3.626c-0.044 0.347-0.355 0.608-0.725 0.608h-4.114l-0.020 11.25h7.146c2.481 0 4.492-1.899 4.492-4.242v-22.997c0-2.343-2.011-4.242-4.492-4.242z"></path>
</symbol>
<symbol id="icon-linkedin-1" viewBox="0 0 33 32">
<path d="M28.451 0h-23.568c-2.692 0-4.883 2.069-4.883 4.612v22.258c0 2.543 2.191 4.611 4.883 4.611h23.568c2.692 0 4.883-2.069 4.883-4.611v-22.258c0-2.543-2.191-4.612-4.883-4.612zM11.784 24.964h-3.906v-12.912h3.906v12.912zM11.784 10.207h-3.906v-3.689h3.906v3.689zM25.456 24.964h-3.906v-7.379c0-1.017-0.876-1.845-1.953-1.845s-1.953 0.828-1.953 1.845v7.379h-3.906v-12.912h3.906v0.695c1.023-0.3 1.688-0.695 2.93-0.695 2.649 0.003 4.883 2.247 4.883 4.9v8.013z"></path>
</symbol>
<symbol id="icon-Group-36" viewBox="0 0 32 32">
<path d="M20.714 4.764l6.423 6.423c2.631 2.631 2.631 6.896 0 9.527l-6.423 6.423c-2.631 2.631-6.896 2.631-9.527 0l-6.423-6.423c-2.631-2.631-2.631-6.896 0-9.527l6.423-6.423c2.631-2.631 6.896-2.631 9.527 0z"></path>
<path d="M9.842 15.694l3.748 3.505c0.098 0.091 0.256 0.091 0.353 0s0.098-0.239 0-0.33l-3.321-3.106h10.889c0.138 0 0.25-0.105 0.25-0.234s-0.112-0.234-0.25-0.234h-10.889l3.321-3.106c0.098-0.091 0.098-0.239 0-0.33-0.049-0.046-0.113-0.068-0.177-0.068s-0.128 0.023-0.177 0.068l-3.748 3.505c-0.098 0.091-0.098 0.239 0 0.33z"></path>
</symbol>
<symbol id="icon-Group-37" viewBox="0 0 38 32">
<path d="M-22.411 0.795l54.77 7.138c3.37 0.439 5.746 3.527 5.307 6.898l-3.435 26.356c-0.439 3.37-3.527 5.746-6.898 5.307l-54.77-7.138c-3.37-0.439-5.746-3.527-5.307-6.898l3.435-26.357c0.439-3.37 3.527-5.746 6.898-5.307z"></path>
<path d="M25.154 19.763l-4.554 4.26c-0.119 0.111-0.311 0.111-0.429 0s-0.119-0.291 0-0.402l4.036-3.775h-13.233c-0.168 0-0.304-0.127-0.304-0.284s0.136-0.284 0.304-0.284h13.233l-4.036-3.775c-0.119-0.111-0.119-0.291 0-0.402 0.059-0.055 0.137-0.083 0.215-0.083s0.155 0.028 0.215 0.083l4.554 4.26c0.119 0.111 0.119 0.291-0 0.402z"></path>
</symbol>
<symbol id="icon-Group-6" viewBox="0 0 37 32">
<path d="M14.292 11.313h9.844v-10.375c0-0.517-0.49-0.938-1.094-0.938h-21.948c-0.604 0-1.094 0.42-1.094 0.938v18.813c0 0.517 0.49 0.937 1.094 0.937h12.104v-8.438c0-0.517 0.49-0.937 1.094-0.937z"></path>
<path d="M36.24 11.313h-12.104v8.438c0 0.517-0.49 0.937-1.094 0.937h-9.844v10.375c0 0.517 0.49 0.938 1.094 0.938h21.948c0.604 0 1.094-0.42 1.094-0.938v-18.812c0-0.518-0.49-0.938-1.094-0.938z"></path>
</symbol>
<symbol id="icon-Group-5" viewBox="0 0 40 32">
<path d="M36.693 0h-33.157c-1.95 0-3.536 1.514-3.536 3.375v22.65c0 1.861 1.586 3.375 3.536 3.375h10.607v2.25h11.864v-2.25h10.686c1.95 0 3.536-1.514 3.536-3.375v-22.65c0-1.861-1.586-3.375-3.536-3.375zM13.798 19.995l-4.714 4.5c-0.46 0.439-1.206 0.439-1.667 0l-2.357-2.25c-0.46-0.439-0.46-1.151 0-1.591s1.206-0.439 1.667 0l1.524 1.455 3.881-3.705c0.46-0.439 1.206-0.439 1.667 0s0.46 1.151 0 1.591zM13.798 13.245l-4.714 4.5c-0.46 0.439-1.206 0.439-1.667 0l-2.357-2.25c-0.46-0.44-0.46-1.151 0-1.591s1.206-0.439 1.667 0l1.524 1.455 3.881-3.705c0.46-0.44 1.206-0.44 1.667 0s0.46 1.151 0 1.591zM13.798 6.495l-4.714 4.5c-0.46 0.439-1.206 0.439-1.667 0l-2.357-2.25c-0.46-0.439-0.46-1.151 0-1.591s1.206-0.439 1.667 0l1.524 1.455 3.881-3.705c0.46-0.439 1.206-0.439 1.667 0s0.46 1.151 0 1.591zM34.336 22.575h-16.657c-0.651 0-1.178-0.503-1.178-1.125s0.527-1.125 1.178-1.125h16.657c0.651 0 1.179 0.503 1.179 1.125s-0.527 1.125-1.179 1.125zM34.336 15.825h-16.657c-0.651 0-1.178-0.503-1.178-1.125s0.527-1.125 1.178-1.125h16.657c0.651 0 1.179 0.503 1.179 1.125s-0.527 1.125-1.179 1.125zM34.336 9.075h-16.657c-0.651 0-1.178-0.503-1.178-1.125s0.527-1.125 1.178-1.125h16.657c0.651 0 1.179 0.503 1.179 1.125s-0.527 1.125-1.179 1.125z"></path>
</symbol>
<symbol id="icon-Group-4" viewBox="0 0 34 32">
<path d="M18.026 0h-15.076c-1.626 0-2.95 1.262-2.95 2.813v4.688h14.748l3.277-7.5zM4.916 4.688c-0.543 0-0.983-0.42-0.983-0.938s0.44-0.938 0.983-0.938c0.543 0 0.983 0.42 0.983 0.938s-0.44 0.938-0.983 0.938zM8.849 4.688c-0.543 0-0.983-0.42-0.983-0.938s0.44-0.938 0.983-0.938c0.543 0 0.983 0.42 0.983 0.938s-0.44 0.938-0.983 0.938zM12.782 4.688c-0.543 0-0.983-0.42-0.983-0.938s0.44-0.938 0.983-0.938c0.543 0 0.983 0.42 0.983 0.938s-0.44 0.938-0.983 0.938z"></path>
<path d="M19.73 14.742v3.446c0 0.518-0.44 0.938-0.983 0.938h-3.933c-0.543 0-0.983-0.42-0.983-0.938v-3.446c-1.214 0.87-1.966 2.249-1.966 3.744 0 1.785 1.047 3.39 2.732 4.189 0.334 0.158 0.545 0.483 0.545 0.839v8.486h3.277v-8.486c0-0.356 0.211-0.681 0.545-0.839 1.685-0.799 2.732-2.405 2.732-4.189 0-1.495-0.752-2.874-1.966-3.744z"></path>
<path d="M30.611 0h-10.455l-3.845 8.798c-0.153 0.349-0.511 0.577-0.908 0.577h-15.404v19.813c0 1.551 1.323 2.813 2.95 2.813h10.226v-7.934c-2.036-1.19-3.277-3.278-3.277-5.58 0-2.771 1.844-5.255 4.588-6.182 0.301-0.102 0.635-0.058 0.896 0.118s0.416 0.461 0.416 0.765v4.063h1.967v-4.063c0-0.304 0.155-0.59 0.416-0.766s0.595-0.22 0.896-0.118c2.744 0.926 4.588 3.411 4.588 6.182 0 2.302-1.241 4.39-3.277 5.58v7.934h10.226c1.626 0 2.95-1.262 2.95-2.813v-26.375c0-1.551-1.323-2.813-2.95-2.813zM7.538 14.063h-2.622c-0.543 0-0.983-0.42-0.983-0.938s0.44-0.938 0.983-0.938h2.622c0.543 0 0.983 0.42 0.983 0.938s-0.44 0.938-0.983 0.938z"></path>
</symbol>
<symbol id="icon-Group-3" viewBox="0 0 51 32">
<path d="M7.208 0.586h35.926c3.91 0 7.092 2.708 7.092 6.036v19.129c0 3.328-3.182 6.036-7.092 6.036h-35.926c-3.91 0-7.092-2.708-7.092-6.036v-19.129c0-3.328 3.182-6.036 7.092-6.036zM32.041 10.189l7.461 6.349-6.635 5.646c-0.574 0.488-0.574 1.279 0 1.767s1.502 0.488 2.076 0l7.673-6.53c0.574-0.488 0.574-1.279 0-1.767l-8.498-7.232c-0.574-0.488-1.503-0.488-2.077 0s-0.573 1.279 0 1.767zM19.932 7.25l7.763 18.707c0.27 0.651 1.109 0.992 1.873 0.762s1.166-0.944 0.895-1.594l-7.763-18.707c-0.27-0.651-1.108-0.992-1.873-0.762-0.764 0.23-1.166 0.944-0.895 1.594zM7.727 16.719l8.498 7.232c0.574 0.488 1.503 0.488 2.077 0 0.573-0.487 0.573-1.279 0-1.767l-7.461-6.349 6.635-5.646c0.574-0.488 0.574-1.279 0-1.767-0.573-0.488-1.502-0.488-2.076 0l-7.673 6.53c-0.574 0.488-0.574 1.278 0 1.767z"></path>
</symbol>
<symbol id="icon-Group-2" viewBox="0 0 39 32">
<path d="M16.6 12.856c-2.057 0-3.217 1.64-3.426 3.164-0.145 1.058-0.529 2.108-0.893 2.919h4.319c1.884 0 3.417-1.364 3.417-3.041s-1.533-3.041-3.417-3.041z"></path>
<path d="M37.936 0h-36.603c-0.629 0-1.139 0.454-1.139 1.014v17.925h9.604c0.361-0.687 0.948-1.948 1.114-3.164 0.181-1.328 0.804-2.549 1.754-3.438 1.040-0.973 2.437-1.509 3.933-1.509 0.273 0 0.542 0.018 0.805 0.052l6.667-5.934c0.645-0.575 1.504-0.891 2.416-0.891s1.771 0.316 2.416 0.891c0.645 0.574 1.001 1.338 1.001 2.151s-0.356 1.576-1.001 2.151l-6.667 5.934c0.037 0.234 0.058 0.473 0.058 0.716 0 1.14-0.426 2.194-1.142 3.041h17.922v-17.925c0-0.56-0.51-1.014-1.139-1.014z"></path>
<path d="M21.349 13.104l5.944-5.291c0.215-0.192 0.334-0.446 0.334-0.717s-0.118-0.525-0.334-0.717c-0.215-0.192-0.501-0.297-0.805-0.297s-0.59 0.105-0.805 0.297l-5.944 5.291c0.639 0.377 1.187 0.865 1.611 1.434z"></path>
<path d="M0.194 24.684c0 0.56 0.51 1.014 1.139 1.014h36.603c0.629 0 1.139-0.454 1.139-1.014v-3.717h-38.881v3.717z"></path>
<path d="M25.33 29.753h-1.139v-2.028h-9.113v2.028h-1.139c-0.629 0-1.139 0.454-1.139 1.014s0.51 1.014 1.139 1.014h11.391c0.629 0 1.139-0.454 1.139-1.014s-0.51-1.014-1.139-1.014z"></path>
</symbol>
<symbol id="icon-Group-1" viewBox="0 0 23 32">
<path d="M16.21 26.782v1.209c0 0.962-0.733 1.762-1.687 1.898l-0.309 1.098c-0.168 0.596-0.724 1.013-1.369 1.013h-3.065c-0.645 0-1.201-0.417-1.369-1.013l-0.3-1.098c-0.963-0.145-1.696-0.936-1.696-1.907v-1.209c0-0.647 0.539-1.166 1.21-1.166h7.375c0.671 0.009 1.21 0.528 1.21 1.175zM21.89 10.491c0 2.749-1.131 5.243-2.968 7.073-1.395 1.396-2.296 3.175-2.597 5.073-0.133 0.817-0.866 1.421-1.731 1.421h-6.563c-0.857 0-1.599-0.596-1.722-1.413-0.309-1.898-1.219-3.702-2.614-5.090-1.802-1.805-2.924-4.256-2.95-6.954-0.062-5.669 4.62-10.256 10.502-10.299 5.874-0.043 10.643 4.537 10.643 10.188zM12.509 4.321c0-0.63-0.53-1.149-1.192-1.149-4.204 0-7.631 3.294-7.631 7.354 0 0.63 0.53 1.149 1.192 1.149 0.654 0 1.192-0.511 1.192-1.149 0-2.792 2.358-5.056 5.247-5.056 0.662 0 1.192-0.511 1.192-1.149z"></path>
</symbol>
<symbol id="icon-Group" viewBox="0 0 31 32">
<path d="M22.090 7.686l0.025-0.312-0.272-0.12-0.381 0.090-0.282 0.463v0.3h0.329l0.581-0.421z"></path>
<path d="M22.485 7.494l0.030 0.234-0.343 0.073-0.046 0.498h0.411l0.547-0.054 0.282-0.343-0.3-0.119-0.164-0.193-0.247-0.408-0.118-0.577-0.464 0.097-0.13 0.204v0.229l0.223 0.156 0.319 0.204z"></path>
<path d="M14.252 9.012l-0.084 0.22h-0.405v0.214h0.096c0 0 0.006 0.045 0.014 0.105l0.249-0.021 0.155-0.098 0.041-0.199 0.201-0.018 0.079-0.167-0.185-0.039-0.162 0.003z"></path>
<path d="M13.207 9.401l-0.016 0.209 0.294-0.025 0.030-0.21-0.176-0.142-0.132 0.168z"></path>
<path d="M30.853 16.079c-0.004-0.461-0.027-0.918-0.070-1.369-0.143-1.502-0.494-2.941-1.021-4.291-0.039-0.1-0.076-0.202-0.117-0.301-0.702-1.694-1.687-3.236-2.894-4.566-0.079-0.087-0.16-0.172-0.24-0.257-0.228-0.242-0.462-0.478-0.704-0.704-2.743-2.55-6.385-4.107-10.378-4.107-4.026 0-7.695 1.585-10.445 4.174-0.641 0.603-1.23 1.262-1.764 1.967-2.015 2.663-3.219 5.998-3.219 9.616 0 8.69 6.922 15.758 15.429 15.758 5.984 0 11.18-3.5 13.737-8.6 0.547-1.090 0.973-2.252 1.26-3.47 0.073-0.309 0.136-0.62 0.19-0.934 0.155-0.895 0.24-1.815 0.24-2.755 0.001-0.054-0.003-0.108-0.003-0.163zM27.95 9.781l0.089-0.102c0.117 0.233 0.227 0.469 0.332 0.709l-0.146-0.006-0.275 0.039v-0.64zM25.72 7.032l0.003-0.704c0.242 0.263 0.476 0.533 0.699 0.813l-0.278 0.423-0.972-0.009-0.061-0.207 0.609-0.316zM7.109 5.282v-0.027h0.309l0.027-0.108h0.506v0.226l-0.145 0.198h-0.697l0.001-0.289zM7.602 5.986c0 0 0.309-0.054 0.336-0.054s0 0.315 0 0.315l-0.697 0.045-0.133-0.162 0.494-0.144zM28.932 12.241h-1.129l-0.688-0.523-0.724 0.072v0.451h-0.229l-0.247-0.18-1.254-0.325v-0.83l-1.589 0.126-0.492 0.27h-0.631l-0.309-0.032-0.766 0.434v0.817l-1.566 1.154 0.13 0.493h0.317l-0.083 0.469-0.223 0.084-0.012 1.226 1.353 1.574h0.589l0.036-0.096h1.058l0.305-0.288h0.6l0.329 0.337 0.895 0.095-0.119 1.215 0.993 1.791-0.523 1.021 0.036 0.481 0.412 0.419v1.156l0.541 0.743v0.961h0.467c-2.599 3.26-6.555 5.347-10.982 5.347-7.807 0.001-14.158-6.487-14.158-14.461 0-2.007 0.404-3.921 1.13-5.66v-0.451l0.506-0.628c0.176-0.339 0.364-0.67 0.565-0.992l0.023 0.262-0.588 0.729c-0.182 0.351-0.352 0.71-0.506 1.079v0.823l0.588 0.289v1.144l0.564 0.983 0.459 0.072 0.059-0.337-0.541-0.853-0.106-0.829h0.317l0.134 0.853 0.782 1.166-0.202 0.377 0.498 0.777 1.236 0.312v-0.204l0.494 0.072-0.047 0.36 0.388 0.073 0.6 0.167 0.847 0.986 1.082 0.084 0.106 0.902-0.741 0.529-0.035 0.805-0.106 0.493 1.071 1.369 0.082 0.469c0 0 0.388 0.108 0.436 0.108s0.871 0.637 0.871 0.637v2.475l0.294 0.084-0.2 1.142 0.494 0.674-0.091 1.132 0.653 1.172 0.838 0.748 0.843 0.016 0.082-0.277-0.619-0.533 0.036-0.264 0.111-0.324 0.024-0.331-0.419-0.013-0.211-0.271 0.348-0.341 0.047-0.258-0.388-0.113 0.023-0.24 0.553-0.086 0.841-0.413 0.282-0.529 0.883-1.154-0.201-0.902 0.271-0.48 0.812 0.025 0.546-0.442 0.176-1.741 0.606-0.786 0.106-0.505-0.553-0.181-0.365-0.611-1.247-0.013-0.989-0.385-0.047-0.72-0.33-0.589-0.894-0.014-0.516-0.828-0.459-0.229-0.023 0.253-0.835 0.050-0.306-0.435-0.871-0.181-0.718 0.847-1.13-0.196-0.082-1.3-0.824-0.144 0.331-0.638-0.095-0.366-1.083 0.74-0.682-0.085-0.243-0.544 0.149-0.561 0.376-0.707 0.865-0.447 1.67-0.001-0.004 0.52 0.6 0.285-0.048-0.889 0.433-0.445 0.873-0.586 0.060-0.412 0.871-0.926 0.926-0.524-0.082-0.069 0.627-0.603 0.23 0.062 0.105 0.135 0.238-0.27 0.058-0.027-0.261-0.038-0.265-0.090v-0.259l0.14-0.117h0.309l0.142 0.064 0.123 0.253 0.15-0.023v-0.022l0.043 0.015 0.434-0.068 0.062-0.216 0.247 0.064v0.235l-0.23 0.161h0.001l0.034 0.257 0.786 0.248c0 0 0.001 0.003 0.002 0.010l0.181-0.016 0.012-0.348-0.623-0.29-0.036-0.167 0.517-0.18 0.023-0.506-0.541-0.336-0.036-0.852-0.741 0.372h-0.27l0.071-0.649-1.009-0.243-0.418 0.322v0.983l-0.751 0.243-0.301 0.64-0.326 0.054v-0.819l-0.706-0.1-0.353-0.235-0.142-0.531 1.262-0.754 0.617-0.192 0.062 0.424 0.344-0.018 0.027-0.213 0.36-0.053 0.006-0.075-0.155-0.065-0.036-0.226 0.442-0.038 0.267-0.284 0.015-0.021 0.003 0.001 0.081-0.086 0.93-0.12 0.411 0.356-1.078 0.587 1.372 0.331 0.178-0.469h0.6l0.212-0.408-0.424-0.108v-0.517l-1.329-0.601-0.918 0.108-0.518 0.277 0.035 0.673-0.541-0.084-0.083-0.372 0.518-0.481-0.941-0.048-0.27 0.084-0.117 0.324 0.353 0.061-0.070 0.36-0.6 0.036-0.094 0.24-0.87 0.025c0 0-0.024-0.504-0.059-0.504s0.682-0.012 0.682-0.012l0.518-0.517-0.283-0.145-0.376 0.373-0.624-0.036-0.376-0.529h-0.8l-0.835 0.637h0.765l0.070 0.229-0.199 0.189 0.847 0.024 0.129 0.312-0.954-0.036-0.046-0.24-0.6-0.132-0.318-0.18-0.714 0.006c2.337-1.739 5.211-2.768 8.318-2.768 3.58 0 6.852 1.367 9.348 3.613l-0.168 0.307-0.653 0.261-0.275 0.305 0.064 0.356 0.337 0.048 0.203 0.518 0.581-0.239 0.096 0.694h-0.175l-0.477-0.072-0.529 0.091-0.512 0.739-0.732 0.117-0.106 0.64 0.309 0.075-0.090 0.412-0.727-0.149-0.667 0.149-0.142 0.379 0.116 0.796 0.392 0.187 0.657-0.004 0.444-0.041 0.135-0.36 0.693-0.92 0.456 0.095 0.449-0.415 0.084 0.324 1.105 0.762-0.135 0.185-0.498-0.027 0.192 0.277 0.306 0.069 0.359-0.153-0.008-0.442 0.159-0.082-0.128-0.139-0.737-0.42-0.194-0.558h0.613l0.196 0.198 0.528 0.465 0.022 0.562 0.547 0.595 0.204-0.815 0.379-0.211 0.071 0.667 0.37 0.415 0.738-0.013c0.143 0.375 0.271 0.757 0.383 1.146l-0.077 0.073zM8.415 7.643l0.371-0.18 0.335 0.082-0.116 0.46-0.362 0.117-0.228-0.478zM10.382 8.725v0.297h-0.847l-0.317-0.090 0.079-0.207 0.407-0.172h0.556v0.172h0.122zM10.772 9.14v0.288l-0.212 0.139-0.264 0.050c0 0 0-0.432 0-0.478h0.476zM10.533 9.023v-0.343l0.291 0.271-0.291 0.072zM10.666 9.716v0.281l-0.202 0.207h-0.45l0.070-0.315 0.213-0.019 0.044-0.108 0.326-0.046zM9.545 9.14h0.468l-0.6 0.856-0.248-0.135 0.053-0.36 0.326-0.36zM11.46 9.618v0.28h-0.45l-0.123-0.181v-0.261h0.036l0.537 0.162zM11.044 9.233l0.128-0.137 0.216 0.137-0.173 0.146-0.171-0.146zM29.162 12.97l0.044-0.053c0.018 0.082 0.038 0.163 0.056 0.246l-0.1-0.193z"></path>
<path d="M2.4 10.131v0.451c0.154-0.368 0.324-0.727 0.506-1.079l-0.506 0.628z"></path>
</symbol>
</defs>
</svg>
